ModelForces
version=1
nRows=4
nColumns=157
inDegrees=no

This file contains the forces exerted on a model during a simulation.

A force is a generalized force, meaning that it can be either a force (N) or a torque (Nm).

Units are S.I. units (second, meters, Newtons, ...)
Angles are in degrees.

endheader
time	glut_med1_r	glut_med2_r	glut_med3_r	glut_min1_r	glut_min2_r	glut_min3_r	semimem_r	semiten_r	bifemlh_r	bifemsh_r	sar_r	add_long_r	add_brev_r	add_mag1_r	add_mag2_r	add_mag3_r	tfl_r	pect_r	grac_r	glut_max1_r	glut_max2_r	glut_max3_r	iliacus_r	psoas_r	quad_fem_r	gem_r	peri_r	rect_fem_r	vas_med_r	vas_int_r	vas_lat_r	med_gas_r	lat_gas_r	soleus_r	tib_post_r	flex_dig_r	flex_hal_r	tib_ant_r	per_brev_r	per_long_r	per_tert_r	ext_dig_r	ext_hal_r	glut_med1_l	glut_med2_l	glut_med3_l	glut_min1_l	glut_min2_l	glut_min3_l	semimem_l	semiten_l	bifemlh_l	bifemsh_l	sar_l	add_long_l	add_brev_l	add_mag1_l	add_mag2_l	add_mag3_l	tfl_l	pect_l	grac_l	glut_max1_l	glut_max2_l	glut_max3_l	iliacus_l	psoas_l	quad_fem_l	gem_l	peri_l	rect_fem_l	vas_med_l	vas_int_l	vas_lat_l	med_gas_l	lat_gas_l	soleus_l	tib_post_l	flex_dig_l	flex_hal_l	tib_ant_l	per_brev_l	per_long_l	per_tert_l	ext_dig_l	ext_hal_l	ercspn_r	ercspn_l	intobl_r	intobl_l	extobl_r	extobl_l	femur_lat_meniscii_r.femur_lat_r.force.X	femur_lat_meniscii_r.femur_lat_r.force.Y	femur_lat_meniscii_r.femur_lat_r.force.Z	femur_lat_meniscii_r.femur_lat_r.torque.X	femur_lat_meniscii_r.femur_lat_r.torque.Y	femur_lat_meniscii_r.femur_lat_r.torque.Z	femur_lat_meniscii_r.meniscus_lat_r.force.X	femur_lat_meniscii_r.meniscus_lat_r.force.Y	femur_lat_meniscii_r.meniscus_lat_r.force.Z	femur_lat_meniscii_r.meniscus_lat_r.torque.X	femur_lat_meniscii_r.meniscus_lat_r.torque.Y	femur_lat_meniscii_r.meniscus_lat_r.torque.Z	femur_med_meniscii_r.femur_med_r.force.X	femur_med_meniscii_r.femur_med_r.force.Y	femur_med_meniscii_r.femur_med_r.force.Z	femur_med_meniscii_r.femur_med_r.torque.X	femur_med_meniscii_r.femur_med_r.torque.Y	femur_med_meniscii_r.femur_med_r.torque.Z	femur_med_meniscii_r.meniscus_med_r.force.X	femur_med_meniscii_r.meniscus_med_r.force.Y	femur_med_meniscii_r.meniscus_med_r.force.Z	femur_med_meniscii_r.meniscus_med_r.torque.X	femur_med_meniscii_r.meniscus_med_r.torque.Y	femur_med_meniscii_r.meniscus_med_r.torque.Z	femur_med_tibia_r.tibia_upper_r.force.X	femur_med_tibia_r.tibia_upper_r.force.Y	femur_med_tibia_r.tibia_upper_r.force.Z	femur_med_tibia_r.tibia_upper_r.torque.X	femur_med_tibia_r.tibia_upper_r.torque.Y	femur_med_tibia_r.tibia_upper_r.torque.Z	femur_med_tibia_r.femur_med_r.force.X	femur_med_tibia_r.femur_med_r.force.Y	femur_med_tibia_r.femur_med_r.force.Z	femur_med_tibia_r.femur_med_r.torque.X	femur_med_tibia_r.femur_med_r.torque.Y	femur_med_tibia_r.femur_med_r.torque.Z	femur_lat_tibia_r.tibia_upper_r.force.X	femur_lat_tibia_r.tibia_upper_r.force.Y	femur_lat_tibia_r.tibia_upper_r.force.Z	femur_lat_tibia_r.tibia_upper_r.torque.X	femur_lat_tibia_r.tibia_upper_r.torque.Y	femur_lat_tibia_r.tibia_upper_r.torque.Z	femur_lat_tibia_r.femur_lat_r.force.X	femur_lat_tibia_r.femur_lat_r.force.Y	femur_lat_tibia_r.femur_lat_r.force.Z	femur_lat_tibia_r.femur_lat_r.torque.X	femur_lat_tibia_r.femur_lat_r.torque.Y	femur_lat_tibia_r.femur_lat_r.torque.Z	aACL_R	pACL_R	aPCL_R	pPCL_R	aMCL_R	mMCL_R	pMCL_R	aLCL_R	mLCL_R	pLCL_R	ground_prescribedForce_fx	ground_prescribedForce_fy	ground_prescribedForce_fz	ground_prescribedForce_px	ground_prescribedForce_py	ground_prescribedForce_pz
      0.07053086	     21.34912239	     31.71754122	    146.33358894	      6.60399502	      7.47263318	     13.64045362	    243.89319071	    177.62574209	    310.42848261	    269.52287983	     97.69373384	     12.51882422	     10.88101983	     22.64204472	     18.84777187	     86.82784845	      0.00000000	      4.22260883	     91.21282001	     14.83135928	     22.29140828	     63.25170608	     13.73232880	     13.21778491	    192.04199192	     37.99992860	     76.87323586	     16.96389166	     37.45578160	     37.07131512	     58.64235342	     36.47527223	     10.06096522	      0.00000000	      0.00000000	      0.82827421	      0.47237670	     37.99149308	     19.13385839	     39.69885942	     11.34747845	     22.07015440	      6.82894345	     21.43272605	     15.11134431	     16.35461840	      6.82630828	      7.75750680	      9.04936240	     27.24720105	     11.52256772	     23.59457481	     18.91613969	      3.88497519	     15.12985214	     10.54099846	      7.75766258	      6.66002534	     11.56125971	      8.78311590	      5.78585239	      4.04848232	      9.79601537	     14.91460683	     11.28684466	     40.20385674	     32.90196802	      9.49568150	      5.75225294	     13.25764111	     32.54463024	     18.08928390	     21.04082212	     22.63164073	     46.98502625	     21.88433681	    101.05453710	     73.08933257	     10.86569014	     10.70589357	     25.28435668	     13.72003900	     32.78506953	      5.07946775	     16.64755753	      5.20456772	     64.33015692	     64.33015692	     24.84961978	     24.84961978	     41.33475650	     41.33475650	    -87.53652757	     -6.27943566	     14.21446039	      0.11383944	     -8.16356310	     -3.03904156	     87.53652757	      6.27943566	    -14.21446039	     -0.00703386	      2.93851024	      1.38853966	    -80.25378123	    -19.43992733	     33.11110347	     -0.09954946	    -11.95699526	     -7.58462023	     80.25378123	     19.43992733	    -33.11110347	      0.33748448	     -0.49318591	      0.85166939	    971.63363677	   -277.25638861	    166.13961877	     -4.86785345	    -21.65892391	     -7.89301900	   -971.63363677	    277.25638861	   -166.13961877	      4.07941994	     87.22995612	    121.92997325	    176.27677840	    -65.11076540	    -52.45075137	      2.03515682	      6.27912529	     -0.95637852	   -176.27677840	     65.11076540	     52.45075137	     -1.44188323	    -25.89037203	     27.29506017	    -17.78087466	      0.00000000	     87.86559103	    152.38709400	      0.00000000	      0.00000000	      0.00000000	      0.00000000	      0.00000000	      0.00000000	      0.00000000	      0.00000000	      0.00000000	      0.00000000	      0.00000000	      0.00000000
      0.07123457	     21.21718436	     31.63443067	    146.26616853	      6.56574231	      7.42842823	     13.58766258	    240.11550133	    176.54749587	    305.84906466	    267.06038615	     97.60393123	     12.44348072	     10.81845771	     22.58733635	     18.79624609	     86.77224619	      0.00000000	      4.19802821	     92.67129739	     14.74135668	     22.15597530	     63.18165008	     13.64944408	     13.13648441	    192.00952445	     37.98262130	     76.82233750	     16.80069170	     34.16302484	     40.03351455	     52.60830809	     36.04749384	      9.54230297	      0.00000000	      0.00000000	      0.67087820	      0.34204786	     37.83998872	     19.06243146	     39.48499597	     11.46002959	     22.05793713	      6.79960319	     21.30026159	     15.02089860	     16.25588995	      6.78674268	      7.71363997	      8.99343475	     27.08273952	     11.45140049	     23.44961108	     18.80435392	      3.86255120	     15.03856014	     10.48040879	      7.71124370	      6.61954547	     11.48956430	      8.73975022	      5.75208270	      4.02476481	      9.73690105	     14.82455357	     11.21818190	     40.03274271	     32.70953369	      9.43966091	      5.72399880	     13.17802296	     32.34377643	     17.97806440	     20.91078860	     22.49122853	     46.71203169	     21.75650519	    100.44626210	     72.81467855	     10.79430744	     10.63437498	     25.12755952	     13.63543235	     32.59560521	      5.04972169	     16.55698091	      5.17645696	     63.95660841	     63.95660841	     24.69758783	     24.69758783	     41.19223101	     41.19223101	    -87.12494125	     -4.66645486	     12.95020519	      0.06561903	     -7.61675042	     -2.36913968	     87.12494125	      4.66645486	    -12.95020519	      0.03594037	      2.87289433	      1.34300670	    -78.60245833	    -18.42750104	     33.39311158	     -0.08437050	    -12.12004753	     -7.19181976	     78.60245833	     18.42750104	    -33.39311158	      0.33185542	     -0.44111469	      0.84266878	    971.27102781	   -286.83659419	    166.16083335	     -5.07367739	    -21.65597849	     -7.94345820	   -971.27102781	    286.83659419	   -166.16083335	      4.28146835	     87.22571235	    125.76453813	    172.16684728	    -65.34079919	    -51.41653673	      2.04269436	      6.13642838	     -0.95816139	   -172.16684728	     65.34079919	     51.41653673	     -1.45068995	    -25.36217547	     27.37279953	    -17.77151034	      0.00000000	     97.16037981	    158.83246181	      0.00000000	      0.00000000	      0.00000000	      0.00000000	      0.00000000	      0.00000000	      0.00000000	      0.00000000	      0.00000000	      0.00000000	      0.00000000	      0.00000000
      0.07193827	     21.08651771	     31.55216443	    146.19942162	      6.52786814	      7.38466318	     13.53540982	    236.50896706	    175.52859912	    301.38356451	    264.84989308	     97.55966437	     12.36888976	     10.75651290	     22.53318533	     18.74525130	     86.71721974	      0.00000000	      4.17369200	     93.54200173	     14.65224783	     22.02188767	     63.11231073	     13.56739391	     13.05599518	    191.97737729	     37.96549011	     76.77199219	     17.27978694	     37.59515092	     39.49011374	     55.80291285	     35.69276819	      9.03798254	      0.00000000	      0.00000000	      0.52321304	      0.22176785	     37.67717965	     18.99012968	     39.26250457	     11.56813919	     22.05935952	      6.76976103	     21.16907340	     14.93135399	     16.15814519	      6.74756869	      7.67021172	      8.93804883	     26.91954258	     11.38092669	     23.30585636	     18.69368139	      3.84034879	     14.94817711	     10.42041694	      7.66528842	      6.57946883	     11.41853770	      8.69672664	      5.71864826	      4.00128280	      9.67837861	     14.73540083	     11.15020196	     39.86336958	     32.51896732	      9.38419752	      5.69602355	     13.09898257	     32.14463985	     17.86795120	     20.78203153	     22.35219601	     46.44071205	     21.62946887	     99.84239266	     72.54169338	     10.72371049	     10.56367784	     24.97216208	     13.55151065	     32.40796638	      5.02027060	     16.46638729	      5.14829579	     63.58675907	     63.58675907	     24.54705925	     24.54705925	     41.05116985	     41.05116985	    -84.22739685	     -6.75629146	     12.70720380	      0.11501595	     -7.44866278	     -3.23962249	     84.22739685	      6.75629146	    -12.70720380	     -0.01837932	      2.79088583	      1.40366812	    -78.04302775	    -12.12506092	     30.36190544	      0.00003656	    -10.86124992	     -4.51560087	     78.04302775	     12.12506092	    -30.36190544	      0.23988957	     -0.54460866	      0.57737083	    956.85439058	   -292.09188048	    164.50917060	     -5.19542807	    -21.37441190	     -7.89937544	   -956.85439058	    292.09188048	   -164.50917060	      4.40410718	     86.27444121	    127.73433901	    166.69166624	    -64.79540987	    -49.60035018	      2.02315296	      5.92995589	     -0.94667426	   -166.69166624	     64.79540987	     49.60035018	     -1.44111345	    -24.47492587	     27.12895044	    -17.06300060	      0.00000000	    107.25231570	    165.16107605	      0.00000000	      0.00000000	      0.00000000	      0.00000000	      0.00000000	      0.00000000	      0.00000000	      0.00000000	      0.00000000	      0.00000000	      0.00000000	      0.00000000
      0.07264197	     20.95711152	     31.47073324	    146.13334090	      6.49036847	      7.34133336	     13.48368992	    233.06838422	    174.56151510	    297.05970124	    262.86448694	     97.54345586	     12.29504344	     10.69517886	     22.47958551	     18.69478162	     86.66276249	      0.00000000	      4.14959758	     94.06710318	     14.56402358	     21.88913160	     63.04367997	     13.48616947	     12.97630933	    191.94554701	     37.94853306	     76.72219349	     16.50175506	     33.97215326	     38.92520348	     58.68154196	     35.41920680	      8.54914962	      0.00000000	      0.00000000	      0.38564395	      0.11166707	     37.51168300	     18.91055820	     39.02452487	     11.67788016	     22.06316493	      6.73988609	     21.03915053	     14.84270094	     16.06137386	      6.70878213	      7.62721737	      8.88319985	     26.75761234	     11.31114001	     23.16330821	     18.58411028	      3.81836563	     14.85869361	     10.36101656	      7.61979184	      6.53979130	     11.34817521	      8.65404626	      5.68554550	      3.97803378	      9.62044184	     14.64713920	     11.08289789	     39.69571896	     32.33025354	      9.32928543	      5.66832479	     13.02052282	     31.94721512	     17.75893357	     20.65453935	     22.21453099	     46.17109236	     21.50323920	     99.24295155	     72.27041557	     10.65389708	     10.49379761	     24.81815723	     13.46827366	     32.22213730	      4.99111170	     16.37581109	      5.12009800	     63.22056962	     63.22056962	     24.39801909	     24.39801909	     40.91155748	     40.91155748	    -87.13920343	     -6.59573944	     13.99591955	      0.10773066	     -8.06185183	     -3.20288481	     87.13920343	      6.59573944	    -13.99591955	      0.00271500	      2.91904795	      1.46691829	    -74.59400486	    -13.40085995	     31.09483829	     -0.01309476	    -11.23915919	     -5.11842455	     74.59400486	     13.40085995	    -31.09483829	      0.26128417	     -0.45367864	      0.67457961	    956.40448913	   -301.82106307	    165.96670790	     -5.40608642	    -21.43241508	     -7.95989562	   -956.40448913	    301.82106307	   -165.96670790	      4.59814922	     86.88164817	    131.63934997	    160.96852046	    -64.02553799	    -48.93056734	      2.01019928	      5.76333458	     -0.92877382	   -160.96852046	     64.02553799	     48.93056734	     -1.42866573	    -24.06527550	     26.78991294	    -16.98169103	      0.00000000	    118.03612596	    171.10958768	      0.00000000	      0.00000000	      0.00000000	      0.00000000	      0.00000000	      0.00000000	      0.00000000	      0.00000000	      0.00000000	      0.00000000	      0.00000000	      0.00000000
